<svg width="391" height="179" viewBox="0 0 391 179" fill="none" xmlns="http://www.w3.org/2000/svg">
<g filter="url(#filter0_ddii_4_89)">
<g clip-path="url(#clip0_4_89)">
<rect x="12" y="19" width="365" height="145" rx="72.5" fill="black"/>
<ellipse cx="272.035" cy="98.2658" rx="160" ry="131" transform="rotate(179.545 272.035 98.2658)" fill="white" fill-opacity="0.1"/>
<ellipse cx="277.035" cy="98.2261" rx="128" ry="113" transform="rotate(179.545 277.035 98.2261)" fill="white" fill-opacity="0.1"/>
<circle cx="292.034" cy="98.1071" r="102" transform="rotate(179.545 292.034 98.1071)" fill="white" fill-opacity="0.1"/>
<g filter="url(#filter1_d_4_89)">
<g clip-path="url(#clip1_4_89)">
<path d="M265 58L265.674 60.0729H267.853L266.09 61.3541L266.763 63.4271L265 62.1459L263.237 63.4271L263.91 61.3541L262.147 60.0729H264.326L265 58Z" fill="#D9D9D9"/>
<path d="M272 70L272.674 72.0729H274.853L273.09 73.3541L273.763 75.4271L272 74.1459L270.237 75.4271L270.91 73.3541L269.147 72.0729H271.326L272 70Z" fill="#D9D9D9"/>
<path d="M262 36L262.674 38.0729H264.853L263.09 39.3541L263.763 41.4271L262 40.1459L260.237 41.4271L260.91 39.3541L259.147 38.0729H261.326L262 36Z" fill="#D9D9D9"/>
<path d="M239 61L238.102 63.0729H235.196L237.547 64.3541L236.649 66.4271L239 65.1459L241.351 66.4271L240.453 64.3541L242.804 63.0729H239.898L239 61Z" fill="#D9D9D9"/>
<path d="M246.897 81.8822L245.71 83.7222L243.493 83.1684L244.976 84.8593L243.789 86.6994L245.892 85.9044L247.375 87.5954L247.193 85.4131L249.297 84.6182L247.08 84.0644L246.897 81.8822Z" fill="#D9D9D9"/>
<path d="M263.505 85.7622L262.318 87.6022L260.101 87.0484L261.584 88.7394L260.397 90.5794L262.5 89.7845L263.983 91.4755L263.801 89.2932L265.905 88.4983L263.688 87.9445L263.505 85.7622Z" fill="#D9D9D9"/>
<path d="M245.505 99.7622L244.318 101.602L242.101 101.048L243.584 102.739L242.397 104.579L244.5 103.784L245.983 105.475L245.801 103.293L247.905 102.498L245.688 101.944L245.505 99.7622Z" fill="#D9D9D9"/>
<path d="M263.505 114.762L262.318 116.602L260.101 116.048L261.584 117.739L260.397 119.579L262.5 118.784L263.983 120.475L263.801 118.293L265.905 117.498L263.688 116.944L263.505 114.762Z" fill="#D9D9D9"/>
<path d="M268.505 130.762L267.318 132.602L265.101 132.048L266.584 133.739L265.397 135.579L267.5 134.784L268.983 136.475L268.801 134.293L270.905 133.498L268.688 132.944L268.505 130.762Z" fill="#D9D9D9"/>
<path d="M246.505 40.7622L245.318 42.6022L243.101 42.0484L244.584 43.7394L243.397 45.5794L245.5 44.7845L246.983 46.4755L246.801 44.2932L248.905 43.4983L246.688 42.9445L246.505 40.7622Z" fill="#D9D9D9"/>
<path d="M347 58L347.674 60.0729H349.853L348.09 61.3541L348.763 63.4271L347 62.1459L345.237 63.4271L345.91 61.3541L344.147 60.0729H346.326L347 58Z" fill="#D9D9D9"/>
<path d="M354 70L354.674 72.0729H356.853L355.09 73.3541L355.763 75.4271L354 74.1459L352.237 75.4271L352.91 73.3541L351.147 72.0729H353.326L354 70Z" fill="#D9D9D9"/>
<path d="M344 36L344.674 38.0729H346.853L345.09 39.3541L345.763 41.4271L344 40.1459L342.237 41.4271L342.91 39.3541L341.147 38.0729H343.326L344 36Z" fill="#D9D9D9"/>
<path d="M321 61L320.102 63.0729H317.196L319.547 64.3541L318.649 66.4271L321 65.1459L323.351 66.4271L322.453 64.3541L324.804 63.0729H321.898L321 61Z" fill="#D9D9D9"/>
<path d="M328.897 81.8822L327.71 83.7222L325.493 83.1684L326.976 84.8593L325.789 86.6994L327.892 85.9044L329.375 87.5954L329.193 85.4131L331.297 84.6182L329.08 84.0644L328.897 81.8822Z" fill="#D9D9D9"/>
<path d="M345.505 85.7622L344.318 87.6022L342.101 87.0484L343.584 88.7394L342.397 90.5794L344.5 89.7845L345.983 91.4755L345.801 89.2932L347.905 88.4983L345.688 87.9445L345.505 85.7622Z" fill="#D9D9D9"/>
<path d="M327.505 99.7622L326.318 101.602L324.101 101.048L325.584 102.739L324.397 104.579L326.5 103.784L327.983 105.475L327.801 103.293L329.905 102.498L327.688 101.944L327.505 99.7622Z" fill="#D9D9D9"/>
<path d="M345.505 114.762L344.318 116.602L342.101 116.048L343.584 117.739L342.397 119.579L344.5 118.784L345.983 120.475L345.801 118.293L347.905 117.498L345.688 116.944L345.505 114.762Z" fill="#D9D9D9"/>
<path d="M350.505 130.762L349.318 132.602L347.101 132.048L348.584 133.739L347.397 135.579L349.5 134.784L350.983 136.475L350.801 134.293L352.905 133.498L350.688 132.944L350.505 130.762Z" fill="#D9D9D9"/>
<path d="M328.505 40.7622L327.318 42.6022L325.101 42.0484L326.584 43.7394L325.397 45.5794L327.5 44.7845L328.983 46.4755L328.801 44.2932L330.905 43.4983L328.688 42.9445L328.505 40.7622Z" fill="#D9D9D9"/>
</g>
</g>
<path d="M105 52L105.674 54.0729H107.853L106.09 55.3541L106.763 57.4271L105 56.1459L103.237 57.4271L103.91 55.3541L102.147 54.0729H104.326L105 52Z" fill="#D9D9D9"/>
<path d="M77 99L77.6735 101.073H79.8532L78.0898 102.354L78.7634 104.427L77 103.146L75.2366 104.427L75.9102 102.354L74.1468 101.073H76.3265L77 99Z" fill="#D9D9D9"/>
<path d="M109 30L109.674 32.0729H111.853L110.09 33.3541L110.763 35.4271L109 34.1459L107.237 35.4271L107.91 33.3541L106.147 32.0729H108.326L109 30Z" fill="#D9D9D9"/>
<path d="M98 86L97.1019 88.0729H94.1958L96.5469 89.3541L95.6489 91.4271L98 90.1459L100.351 91.4271L99.4531 89.3541L101.804 88.0729H98.8981L98 86Z" fill="#D9D9D9"/>
<path d="M77.5053 32.7622L76.3178 34.6022L74.1012 34.0484L75.584 35.7394L74.3965 37.5794L76.5004 36.7845L77.9832 38.4755L77.8006 36.2932L79.9045 35.4983L77.6878 34.9445L77.5053 32.7622Z" fill="#D9D9D9"/>
<path d="M76.5053 118.762L75.3178 120.602L73.1012 120.048L74.584 121.739L73.3965 123.579L75.5004 122.784L76.9832 124.475L76.8006 122.293L78.9045 121.498L76.6878 120.944L76.5053 118.762Z" fill="#D9D9D9"/>
<path d="M88.5053 23.7622L87.3178 25.6022L85.1012 25.0484L86.584 26.7394L85.3965 28.5794L87.5004 27.7845L88.9832 29.4755L88.8006 27.2932L90.9045 26.4983L88.6878 25.9445L88.5053 23.7622Z" fill="#D9D9D9"/>
<path d="M94.5053 135.762L93.3178 137.602L91.1012 137.048L92.584 138.739L91.3965 140.579L93.5004 139.784L94.9832 141.475L94.8006 139.293L96.9045 138.498L94.6878 137.944L94.5053 135.762Z" fill="#D9D9D9"/>
<path d="M102.505 110.762L101.318 112.602L99.1012 112.048L100.584 113.739L99.3965 115.579L101.5 114.784L102.983 116.475L102.801 114.293L104.905 113.498L102.688 112.944L102.505 110.762Z" fill="#D9D9D9"/>
<path d="M90.5053 62.7622L89.3178 64.6022L87.1012 64.0484L88.584 65.7394L87.3965 67.5794L89.5004 66.7845L90.9832 68.4755L90.8006 66.2932L92.9045 65.4983L90.6878 64.9445L90.5053 62.7622Z" fill="#D9D9D9"/>
<path d="M55 66L55.6735 68.0729H57.8532L56.0898 69.3541L56.7634 71.4271L55 70.1459L53.2366 71.4271L53.9102 69.3541L52.1468 68.0729H54.3265L55 66Z" fill="#D9D9D9"/>
<path d="M62 78L62.6735 80.0729H64.8532L63.0898 81.3541L63.7634 83.4271L62 82.1459L60.2366 83.4271L60.9102 81.3541L59.1468 80.0729H61.3265L62 78Z" fill="#D9D9D9"/>
<path d="M52 44L52.6735 46.0729H54.8532L53.0898 47.3541L53.7634 49.4271L52 48.1459L50.2366 49.4271L50.9102 47.3541L49.1468 46.0729H51.3265L52 44Z" fill="#D9D9D9"/>
<path d="M29 69L28.1019 71.0729H25.1958L27.5469 72.3541L26.6489 74.4271L29 73.1459L31.3511 74.4271L30.4531 72.3541L32.8042 71.0729H29.8981L29 69Z" fill="#D9D9D9"/>
<path d="M36.8974 89.8822L35.71 91.7222L33.4933 91.1684L34.9761 92.8593L33.7887 94.6994L35.8925 93.9044L37.3753 95.5954L37.1928 93.4131L39.2966 92.6182L37.0799 92.0644L36.8974 89.8822Z" fill="#D9D9D9"/>
<path d="M53.5053 93.7622L52.3178 95.6022L50.1012 95.0484L51.584 96.7394L50.3965 98.5794L52.5004 97.7845L53.9832 99.4755L53.8006 97.2932L55.9045 96.4983L53.6878 95.9445L53.5053 93.7622Z" fill="#D9D9D9"/>
<path d="M35.5053 107.762L34.3178 109.602L32.1012 109.048L33.584 110.739L32.3965 112.579L34.5004 111.784L35.9832 113.475L35.8006 111.293L37.9045 110.498L35.6878 109.944L35.5053 107.762Z" fill="#D9D9D9"/>
<path d="M53.5053 122.762L52.3178 124.602L50.1012 124.048L51.584 125.739L50.3965 127.579L52.5004 126.784L53.9832 128.475L53.8006 126.293L55.9045 125.498L53.6878 124.944L53.5053 122.762Z" fill="#D9D9D9"/>
<path d="M58.5053 138.762L57.3178 140.602L55.1012 140.048L56.584 141.739L55.3965 143.579L57.5004 142.784L58.9832 144.475L58.8006 142.293L60.9045 141.498L58.6878 140.944L58.5053 138.762Z" fill="#D9D9D9"/>
<path d="M36.5053 48.7622L35.3178 50.6022L33.1012 50.0484L34.584 51.7394L33.3965 53.5794L35.5004 52.7845L36.9832 54.4755L36.8006 52.2932L38.9045 51.4983L36.6878 50.9445L36.5053 48.7622Z" fill="#D9D9D9"/>
</g>
</g>
<defs>
<filter id="filter0_ddii_4_89" x="0" y="0" width="391" height="179" filterUnits="userSpaceOnUse" color-interpolation-filters="sRGB">
<feFlood flood-opacity="0" result="BackgroundImageFix"/>
<feColorMatrix in="SourceAlpha" type="matrix" values="0 0 0 0 0 0 0 0 0 0 0 0 0 0 0 0 0 0 127 0" result="hardAlpha"/>
<feOffset dx="3" dy="7"/>
<feGaussianBlur stdDeviation="4"/>
<feComposite in2="hardAlpha" operator="out"/>
<feColorMatrix type="matrix" values="0 0 0 0 0 0 0 0 0 0 0 0 0 0 0 0 0 0 0.25 0"/>
<feBlend mode="normal" in2="BackgroundImageFix" result="effect1_dropShadow_4_89"/>
<feColorMatrix in="SourceAlpha" type="matrix" values="0 0 0 0 0 0 0 0 0 0 0 0 0 0 0 0 0 0 127 0" result="hardAlpha"/>
<feOffset dx="1" dy="-6"/>
<feGaussianBlur stdDeviation="6.5"/>
<feComposite in2="hardAlpha" operator="out"/>
<feColorMatrix type="matrix" values="0 0 0 0 0 0 0 0 0 0 0 0 0 0 0 0 0 0 0.25 0"/>
<feBlend mode="normal" in2="effect1_dropShadow_4_89" result="effect2_dropShadow_4_89"/>
<feBlend mode="normal" in="SourceGraphic" in2="effect2_dropShadow_4_89" result="shape"/>
<feColorMatrix in="SourceAlpha" type="matrix" values="0 0 0 0 0 0 0 0 0 0 0 0 0 0 0 0 0 0 127 0" result="hardAlpha"/>
<feOffset dy="7"/>
<feGaussianBlur stdDeviation="4.5"/>
<feComposite in2="hardAlpha" operator="arithmetic" k2="-1" k3="1"/>
<feColorMatrix type="matrix" values="0 0 0 0 0 0 0 0 0 0 0 0 0 0 0 0 0 0 0.25 0"/>
<feBlend mode="normal" in2="shape" result="effect3_innerShadow_4_89"/>
<feColorMatrix in="SourceAlpha" type="matrix" values="0 0 0 0 0 0 0 0 0 0 0 0 0 0 0 0 0 0 127 0" result="hardAlpha"/>
<feOffset dy="1"/>
<feGaussianBlur stdDeviation="7.5"/>
<feComposite in2="hardAlpha" operator="arithmetic" k2="-1" k3="1"/>
<feColorMatrix type="matrix" values="0 0 0 0 0 0 0 0 0 0 0 0 0 0 0 0 0 0 0.25 0"/>
<feBlend mode="normal" in2="effect3_innerShadow_4_89" result="effect4_innerShadow_4_89"/>
</filter>
<filter id="filter1_d_4_89" x="222" y="26" width="152" height="131.346" filterUnits="userSpaceOnUse" color-interpolation-filters="sRGB">
<feFlood flood-opacity="0" result="BackgroundImageFix"/>
<feColorMatrix in="SourceAlpha" type="matrix" values="0 0 0 0 0 0 0 0 0 0 0 0 0 0 0 0 0 0 127 0" result="hardAlpha"/>
<feOffset dx="2" dy="5"/>
<feGaussianBlur stdDeviation="7.5"/>
<feComposite in2="hardAlpha" operator="out"/>
<feColorMatrix type="matrix" values="0 0 0 0 0 0 0 0 0 0 0 0 0 0 0 0 0 0 0.25 0"/>
<feBlend mode="normal" in2="BackgroundImageFix" result="effect1_dropShadow_4_89"/>
<feBlend mode="normal" in="SourceGraphic" in2="effect1_dropShadow_4_89" result="shape"/>
</filter>
<clipPath id="clip0_4_89">
<rect x="12" y="19" width="365" height="145" rx="72.5" fill="white"/>
</clipPath>
<clipPath id="clip1_4_89">
<rect x="235" y="36" width="122" height="101.346" rx="50.6728" fill="white"/>
</clipPath>
</defs>
</svg>
