<svg width="391" height="179" viewBox="0 0 391 179" fill="none" xmlns="http://www.w3.org/2000/svg">
<g filter="url(#filter0_ddii_2_3)">
<g clip-path="url(#clip0_2_3)">
<rect x="12" y="19" width="365" height="145" rx="72.5" fill="#05649A"/>
<ellipse cx="100" cy="91" rx="160" ry="131" fill="white" fill-opacity="0.1"/>
<ellipse cx="95" cy="91" rx="128" ry="113" fill="white" fill-opacity="0.1"/>
<circle cx="80" cy="91" r="102" fill="white" fill-opacity="0.1"/>
<path fill-rule="evenodd" clip-rule="evenodd" d="M402 53C402 74.1151 389.053 92.1108 370.902 99.0003C369.864 103.49 367.929 107.661 365.285 111.342C365.3 111.831 365.304 112.322 365.297 112.815C365.036 132.591 347.746 148.397 326.677 148.119C324.222 148.087 321.823 147.837 319.503 147.39C312.472 156.46 301.014 162.289 288.147 162.119C278.294 161.989 269.36 158.364 262.667 152.518C255.733 158.591 246.386 162.254 236.147 162.119C228.63 162.02 221.647 159.886 215.787 156.284C208.709 164.841 197.586 170.283 185.147 170.119C176.03 169.999 167.7 166.886 161.204 161.791C154.318 171.768 142.286 178.299 128.677 178.119C116.735 177.961 106.142 172.669 99.2539 164.512C92.1521 172.358 81.5106 177.275 69.6775 177.119C48.6525 176.842 31.811 160.65 32.0016 140.929C26.0872 144.31 19.1179 146.217 11.6775 146.119C-9.39069 145.841 -26.2581 129.584 -25.997 109.808C-25.7359 90.0317 -8.44511 74.2255 12.623 74.5037C33.648 74.7813 50.4895 90.9725 50.2989 110.694C56.2133 107.313 63.1826 105.405 70.623 105.504C82.5656 105.661 93.1583 110.953 100.047 119.11C107.148 111.265 117.79 106.347 129.623 106.504C138.74 106.624 147.071 109.737 153.567 114.832C160.452 104.855 172.484 98.324 186.093 98.5037C193.61 98.6029 200.593 100.737 206.453 104.339C213.531 95.7822 224.654 90.3394 237.093 90.5037C246.946 90.6338 255.88 94.2589 262.574 100.104C269.507 94.0323 278.854 90.3685 289.093 90.5037C291.268 90.5324 293.399 90.7315 295.47 91.0872C295.471 90.9941 295.472 90.901 295.473 90.8077C295.611 80.3065 300.552 70.9247 308.31 64.4761C307.454 60.7949 307 56.9521 307 53C307 25.938 328.266 4 354.5 4C380.734 4 402 25.938 402 53Z" fill="white" fill-opacity="0.6"/>
<path fill-rule="evenodd" clip-rule="evenodd" d="M385.646 99.4562C404.453 92.9338 418 74.5989 418 53C418 25.938 396.734 4 370.5 4C344.266 4 323 25.938 323 53C323 59.8375 324.358 66.3479 326.81 72.26C316.508 78.5496 309.637 89.3969 309.473 101.808C309.448 103.712 309.581 105.584 309.862 107.412C304.346 104.373 297.941 102.594 291.093 102.504C281.182 102.373 272.107 105.801 265.247 111.528C261.439 110.269 257.352 109.56 253.093 109.504C241.005 109.344 230.161 114.479 223.063 122.621C220.191 121.93 217.187 121.545 214.093 121.504C209.678 121.445 205.428 122.093 201.467 123.336C197.044 121.574 192.191 120.571 187.093 120.504C172.785 120.315 160.22 127.544 153.547 138.396C147.667 134.759 140.65 132.603 133.093 132.504C121.26 132.347 110.618 137.265 103.516 145.11C96.6281 136.953 86.0354 131.661 74.0928 131.504C66.6524 131.405 59.6831 133.313 53.7687 136.694C53.9592 116.972 37.1178 100.781 16.0928 100.504C-4.97532 100.226 -22.2661 116.032 -22.5272 135.808C-22.7883 155.584 -5.9209 171.841 15.1472 172.119C22.5877 172.217 29.5569 170.31 35.4714 166.929C35.2808 186.65 52.1223 202.842 73.1472 203.119C84.9804 203.275 95.6218 198.358 102.724 190.512C109.612 198.669 120.205 203.961 132.147 204.119C146.455 204.308 159.02 197.079 165.693 186.226C171.573 189.863 178.59 192.019 186.147 192.119C190.562 192.177 194.812 191.529 198.773 190.286C203.196 192.049 208.049 193.052 213.147 193.119C225.235 193.279 236.079 188.144 243.177 180.002C246.049 180.693 249.053 181.078 252.147 181.119C262.058 181.25 271.133 177.821 277.993 172.095C281.801 173.354 285.889 174.063 290.147 174.119C297.673 174.219 304.716 172.266 310.673 168.813C316.346 172.094 323.005 174.025 330.147 174.119C351.215 174.397 368.506 158.591 368.767 138.815C368.796 136.652 368.619 134.531 368.255 132.469C378.655 126.196 385.602 115.296 385.767 102.815C385.782 101.683 385.741 100.563 385.646 99.4562Z" fill="white"/>
</g>
</g>
<defs>
<filter id="filter0_ddii_2_3" x="0" y="0" width="391" height="179" filterUnits="userSpaceOnUse" color-interpolation-filters="sRGB">
<feFlood flood-opacity="0" result="BackgroundImageFix"/>
<feColorMatrix in="SourceAlpha" type="matrix" values="0 0 0 0 0 0 0 0 0 0 0 0 0 0 0 0 0 0 127 0" result="hardAlpha"/>
<feOffset dx="3" dy="7"/>
<feGaussianBlur stdDeviation="4"/>
<feComposite in2="hardAlpha" operator="out"/>
<feColorMatrix type="matrix" values="0 0 0 0 0 0 0 0 0 0 0 0 0 0 0 0 0 0 0.25 0"/>
<feBlend mode="normal" in2="BackgroundImageFix" result="effect1_dropShadow_2_3"/>
<feColorMatrix in="SourceAlpha" type="matrix" values="0 0 0 0 0 0 0 0 0 0 0 0 0 0 0 0 0 0 127 0" result="hardAlpha"/>
<feOffset dx="1" dy="-6"/>
<feGaussianBlur stdDeviation="6.5"/>
<feComposite in2="hardAlpha" operator="out"/>
<feColorMatrix type="matrix" values="0 0 0 0 0 0 0 0 0 0 0 0 0 0 0 0 0 0 0.25 0"/>
<feBlend mode="normal" in2="effect1_dropShadow_2_3" result="effect2_dropShadow_2_3"/>
<feBlend mode="normal" in="SourceGraphic" in2="effect2_dropShadow_2_3" result="shape"/>
<feColorMatrix in="SourceAlpha" type="matrix" values="0 0 0 0 0 0 0 0 0 0 0 0 0 0 0 0 0 0 127 0" result="hardAlpha"/>
<feOffset dy="7"/>
<feGaussianBlur stdDeviation="4.5"/>
<feComposite in2="hardAlpha" operator="arithmetic" k2="-1" k3="1"/>
<feColorMatrix type="matrix" values="0 0 0 0 0 0 0 0 0 0 0 0 0 0 0 0 0 0 0.25 0"/>
<feBlend mode="normal" in2="shape" result="effect3_innerShadow_2_3"/>
<feColorMatrix in="SourceAlpha" type="matrix" values="0 0 0 0 0 0 0 0 0 0 0 0 0 0 0 0 0 0 127 0" result="hardAlpha"/>
<feOffset dy="1"/>
<feGaussianBlur stdDeviation="7.5"/>
<feComposite in2="hardAlpha" operator="arithmetic" k2="-1" k3="1"/>
<feColorMatrix type="matrix" values="0 0 0 0 0 0 0 0 0 0 0 0 0 0 0 0 0 0 0.25 0"/>
<feBlend mode="normal" in2="effect3_innerShadow_2_3" result="effect4_innerShadow_2_3"/>
</filter>
<clipPath id="clip0_2_3">
<rect x="12" y="19" width="365" height="145" rx="72.5" fill="white"/>
</clipPath>
</defs>
</svg>
